<svg width="712" height="361" viewBox="0 0 712 361" fill="none" xmlns="http://www.w3.org/2000/svg">
<path d="M11.581 192.084C18.467 191.249 23.5793 187.598 26.918 181.129C30.2567 174.452 31.926 165.27 31.926 153.585V99.749C31.926 81.8037 36.0993 69.1793 44.446 61.876C53.0013 54.5727 65.3127 50.921 81.38 50.921V71.892C72.616 71.892 66.4603 74.1873 62.913 78.778C59.3657 83.16 57.592 90.046 57.592 99.436V152.959C57.592 177.373 50.393 193.858 35.995 202.413C50.393 210.968 57.592 227.453 57.592 251.867V305.39C57.592 314.78 59.3657 321.666 62.913 326.048C66.4603 330.639 72.616 332.934 81.38 332.934V353.905C65.3127 353.905 53.0013 350.253 44.446 342.95C36.0993 335.647 31.926 323.022 31.926 305.077V251.241C31.926 239.556 30.2567 230.479 26.918 224.01C23.5793 217.333 18.467 213.577 11.581 212.742V192.084Z" fill="#E93524"/>
<path d="M352.677 213.742C345.791 214.577 340.679 218.333 337.34 225.01C334.001 231.479 332.332 240.556 332.332 252.241V306.077C332.332 324.022 328.054 336.647 319.499 343.95C311.152 351.253 298.945 354.905 282.878 354.905V333.934C291.642 333.934 297.798 331.639 301.345 327.048C304.892 322.666 306.666 315.78 306.666 306.39V252.867C306.666 228.453 313.865 211.968 328.263 203.413C313.865 194.858 306.666 178.373 306.666 153.959V100.436C306.666 91.046 304.892 84.16 301.345 79.778C297.798 75.1873 291.642 72.892 282.878 72.892V51.921C298.945 51.921 311.152 55.5727 319.499 62.876C328.054 70.1793 332.332 82.8037 332.332 100.749V154.585C332.332 166.27 334.001 175.452 337.34 182.129C340.679 188.598 345.791 192.249 352.677 193.084V213.742Z" fill="#E93524"/>
<mask id="mask0_103_48" style="mask-type:alpha" maskUnits="userSpaceOnUse" x="11" y="50" width="342" height="305">
<path d="M11.581 192.084C18.467 191.249 23.5793 187.598 26.918 181.129C30.2567 174.452 31.926 165.27 31.926 153.585V99.749C31.926 81.8037 36.0993 69.1793 44.446 61.876C53.0013 54.5727 65.3127 50.921 81.38 50.921V71.892C72.616 71.892 66.4603 74.1873 62.913 78.778C59.3657 83.16 57.592 90.046 57.592 99.436V152.959C57.592 177.373 50.393 193.858 35.995 202.413C50.393 210.968 57.592 227.453 57.592 251.867V305.39C57.592 314.78 59.3657 321.666 62.913 326.048C66.4603 330.639 72.616 332.934 81.38 332.934V353.905C65.3127 353.905 53.0013 350.253 44.446 342.95C36.0993 335.647 31.926 323.022 31.926 305.077V251.241C31.926 239.556 30.2567 230.479 26.918 224.01C23.5793 217.333 18.467 213.577 11.581 212.742V192.084Z" fill="#E93524"/>
<path d="M352.677 213.742C345.791 214.577 340.679 218.333 337.34 225.01C334.001 231.479 332.332 240.556 332.332 252.241V306.077C332.332 324.022 328.054 336.647 319.499 343.95C311.152 351.253 298.945 354.905 282.878 354.905V333.934C291.642 333.934 297.798 331.639 301.345 327.048C304.892 322.666 306.666 315.78 306.666 306.39V252.867C306.666 228.453 313.865 211.968 328.263 203.413C313.865 194.858 306.666 178.373 306.666 153.959V100.436C306.666 91.046 304.892 84.16 301.345 79.778C297.798 75.1873 291.642 72.892 282.878 72.892V51.921C298.945 51.921 311.152 55.5727 319.499 62.876C328.054 70.1793 332.332 82.8037 332.332 100.749V154.585C332.332 166.27 334.001 175.452 337.34 182.129C340.679 188.598 345.791 192.249 352.677 193.084V213.742Z" fill="#E93524"/>
</mask>
<g mask="url(#mask0_103_48)">
<path fill-rule="evenodd" clip-rule="evenodd" d="M82 106C104.091 106 122 88.0914 122 66C122 43.9086 104.091 26 82 26C59.9086 26 42 43.9086 42 66C42 88.0914 59.9086 106 82 106ZM82 380C104.091 380 122 362.091 122 340C122 317.909 104.091 300 82 300C59.9086 300 42 317.909 42 340C42 362.091 59.9086 380 82 380ZM322 66C322 88.0914 304.091 106 282 106C259.909 106 242 88.0914 242 66C242 43.9086 259.909 26 282 26C304.091 26 322 43.9086 322 66ZM282 380C304.091 380 322 362.091 322 340C322 317.909 304.091 300 282 300C259.909 300 242 317.909 242 340C242 362.091 259.909 380 282 380Z" fill="#F3AF3D"/>
</g>
<path d="M121 93.5C119.895 93.5 119 94.3954 119 95.5V188.5C119 189.605 119.895 190.5 121 190.5H200C201.105 190.5 202 189.605 202 188.5V95.5C202 94.3954 201.105 93.5 200 93.5H121Z" stroke="#8F8F8F" stroke-width="4" stroke-linejoin="round"/>
<path d="M130 112H192" stroke="#8F8F8F" stroke-width="4"/>
<path d="M138 132H192" stroke="#8F8F8F" stroke-width="4"/>
<path d="M130 132H136" stroke="#8F8F8F" stroke-width="4"/>
<path d="M138 154H192" stroke="#8F8F8F" stroke-width="4"/>
<path d="M130 154H136" stroke="#8F8F8F" stroke-width="4"/>
<path d="M138 176H192" stroke="#8F8F8F" stroke-width="4"/>
<path d="M130 176H136" stroke="#8F8F8F" stroke-width="4"/>
<path d="M121 212.5C119.895 212.5 119 213.395 119 214.5V307.5C119 308.605 119.895 309.5 121 309.5H200C201.105 309.5 202 308.605 202 307.5V214.5C202 213.395 201.105 212.5 200 212.5H121Z" stroke="#8F8F8F" stroke-width="4" stroke-linejoin="round"/>
<path d="M130 231H192" stroke="#8F8F8F" stroke-width="4"/>
<path d="M138 251H192" stroke="#8F8F8F" stroke-width="4"/>
<path d="M130 251H136" stroke="#8F8F8F" stroke-width="4"/>
<path d="M138 273H192" stroke="#8F8F8F" stroke-width="4"/>
<path d="M130 273H136" stroke="#8F8F8F" stroke-width="4"/>
<path d="M138 295H192" stroke="#8F8F8F" stroke-width="4"/>
<path d="M130 295H136" stroke="#8F8F8F" stroke-width="4"/>
<path d="M216 144H243V263H216" stroke="#8F8F8F" stroke-width="4"/>
<path d="M393.68 179.4V189.872H404.764V227H417.004V189.872H428.088V179.4H393.68ZM453.273 196.74L445.793 179.4H432.329L446.949 209.048V227H459.257V208.98L473.741 179.4H460.277L453.273 196.74ZM481.356 179.4V227H493.528V212.924H499.716C509.848 212.924 515.696 206.804 515.696 196.944V195.38C515.696 185.52 509.848 179.4 499.716 179.4H481.356ZM493.46 202.384V189.94H498.9C501.96 189.94 503.456 192.048 503.456 196.196C503.456 200.344 501.96 202.384 498.9 202.384H493.46ZM537.592 208.096H551.532V197.692H537.592V189.94H554.592V179.4H525.42V227H554.932V216.528H537.592V208.096Z" fill="#3E3E3E"/>
<path d="M584.492 227.544C577.783 227.544 572.048 225.187 567.288 220.472C562.573 215.712 560.216 209.977 560.216 203.268C560.216 196.513 562.573 190.756 567.288 185.996C572.048 181.236 577.783 178.856 584.492 178.856C591.247 178.856 597.004 181.236 601.764 185.996C606.524 190.756 608.904 196.513 608.904 203.268C608.904 209.977 606.524 215.712 601.764 220.472C597.004 225.187 591.247 227.544 584.492 227.544ZM569.124 187.832C564.863 192.139 562.732 197.284 562.732 203.268C562.732 209.252 564.863 214.375 569.124 218.636C573.385 222.897 578.508 225.028 584.492 225.028C590.476 225.028 595.621 222.897 599.928 218.636C604.235 214.375 606.388 209.252 606.388 203.268C606.388 197.284 604.235 192.139 599.928 187.832C595.621 183.525 590.476 181.372 584.492 181.372C578.508 181.372 573.385 183.525 569.124 187.832ZM641.669 227H639.085L628.545 204.424H619.705V227H617.189V179.4H626.981C631.787 179.4 635.64 181.145 638.541 184.636C640.173 186.585 640.989 189.056 640.989 192.048C640.989 195.04 640.128 197.624 638.405 199.8C636.683 201.976 634.212 203.404 630.993 204.084L641.669 227ZM619.705 202.18H626.641C632.58 202.18 636.32 199.868 637.861 195.244C638.269 194.111 638.473 192.909 638.473 191.64C638.473 188.965 637.317 186.631 635.005 184.636C632.739 182.641 629.973 181.644 626.709 181.644H619.705V202.18ZM704.554 177.224V227H702.038V186.132L702.242 183.956L701.018 185.792L679.666 213.672L658.314 185.792L657.09 183.956L657.294 186.132V227H654.778V177.224L679.666 209.524L704.554 177.224Z" fill="#3E3E3E"/>
</svg>
